<svg xmlns="http://www.w3.org/2000/svg" width="344.66" height="50.11"><path d="M149.22 22.82L127.34.94a3.23 3.23 0 00-4.56 0l-4.54 4.55 5.76 5.76a3.83 3.83 0 014.85 4.88l5.56 5.55a3.84 3.84 0 11-2.3 2.17l-5.19-5.18V32.3a3.84 3.84 0 11-4.41.73 3.9 3.9 0 011.26-.84V18.44a3.78 3.78 0 01-1.26-.84 3.85 3.85 0 01-.83-4.2L116 7.72l-15 15a3.23 3.23 0 000 4.57l21.88 21.87a3.23 3.23 0 004.56 0l21.78-21.77a3.22 3.22 0 000-4.57z" fill="#e84427"/><path fill="#e24329" d="M27.16 50.04l12.57-30.78h-23.7l11.13 30.78z"/><path fill="#fc6d26" d="M27.16 50.04l-10-30.78H3.14z"/><path fill="#fca326" d="M3.14 19.26L.1 28.6a2.07 2.07 0 00.75 2.32l26.31 19.11z"/><path fill="#e24329" d="M3.14 19.26h14.02L11.13.7a1.03 1.03 0 00-1.97 0z"/><path fill="#fc6d26" d="M27.16 50.04l10-30.78h14.02z"/><path fill="#fca326" d="M51.18 19.26l3.04 9.35a2.07 2.07 0 01-.75 2.32l-26.3 19.11z"/><path fill="#e24329" d="M51.18 19.26H37.16L43.2.7a1.03 1.03 0 011.97 0z"/><g><path d="M217.57 33.13h10.95l2.64-15.42h-16.5z" fill="none"/><path d="M198.54 1.9a1.68 1.68 0 00-1.7 1.64 1.73 1.73 0 00.02.3l7.12 43.22a2.28 2.28 0 002.23 1.9h34.16a1.68 1.68 0 001.67-1.41l7.12-43.7a1.7 1.7 0 00-1.67-1.95zm29.98 31.23h-10.9l-2.96-15.42h16.5z" fill="#2684ff"/><path d="M51.59 18.86H35.85L33.2 34.28H22.3L9.43 49.56a2.3 2.3 0 001.47.55h34.16a1.68 1.68 0 001.68-1.4z" transform="translate(195.31 -1.15)" fill="url(#a)"/></g><path d="M319.8.95a24.87 24.87 0 00-7.87 48.46c1.23.23 1.7-.53 1.7-1.2l-.04-4.23c-6.91 1.5-8.38-3.33-8.38-3.33-1.13-2.87-2.76-3.65-2.76-3.65-2.26-1.54.17-1.51.17-1.51a5.28 5.28 0 013.81 2.56c2.22 3.8 5.82 2.7 7.24 2.06a5.4 5.4 0 011.57-3.32c-5.51-.62-11.31-2.75-11.31-12.28a9.55 9.55 0 012.57-6.66 8.94 8.94 0 01.23-6.58s2.09-.68 6.84 2.55a23.52 23.52 0 0112.45 0c4.75-3.23 6.84-2.55 6.84-2.55a8.89 8.89 0 01.24 6.58 9.61 9.61 0 012.55 6.67c0 9.55-5.81 11.64-11.35 12.27a5.97 5.97 0 011.69 4.6c0 3.34-.03 6-.03 6.83 0 .67.44 1.44 1.7 1.2A24.87 24.87 0 00319.8.94z" fill="#4e5159"/></svg>