<svg xmlns="http://www.w3.org/2000/svg" width="506.65" height="83.22"><path fill="#3b59b2" d="M18.45 65.16a5 5 0 01-4.97-4.59 4.74 4.74 0 014.97-4.59 5 5 0 014.98 4.59c-.39 2.3-2.68 4.59-4.98 4.59zm60.8-26c-.37-3.83-2.67-6.9-6.11-9.18l-1.15-.77-1.14 1.15a11.86 11.86 0 00-2.3 8.8c.38 2.3.77 4.2 2.3 5.73a7.69 7.69 0 00-3.06 1.53 18.95 18.95 0 01-6.5.77H.09v1.53A26.86 26.86 0 002.4 62.1l.77 1.53V64c5.73 9.56 16.06 13.77 27.15 13.77 21.41 0 38.62-9.18 47.04-29.07 5.35.39 11.09-1.14 13.38-6.5l.77-1.14-1.15-.77c-3.44-1.91-7.65-1.91-11.1-1.15zm-30.58-3.83h-9.18v9.18h9.18v-9.18zm0-11.47h-9.18v9.17h9.18v-9.17zm0-11.86h-9.18v9.18h9.18V12zm11.47 23.33h-9.18v9.18h9.18v-9.18zm-34.42 0h-9.18v9.18h9.18v-9.18zm11.47 0h-9.18v9.18h9.18v-9.18zm-22.94 0H5.07v9.18h9.18v-9.18zm22.94-11.47h-9.18v9.17h9.18v-9.17zm-11.47 0h-9.18v9.17h9.18v-9.17zM351.77 41.17L318.06 7.46a4.98 4.98 0 00-7.04 0l-7 7 8.88 8.88a5.9 5.9 0 017.48 7.52l8.56 8.56a5.92 5.92 0 11-3.54 3.33l-7.98-7.98v21.01a5.92 5.92 0 11-6.8 1.12 6 6 0 011.93-1.3V34.42a5.82 5.82 0 01-1.94-1.3 5.94 5.94 0 01-1.28-6.47l-8.75-8.75-23.12 23.11a4.98 4.98 0 000 7.04l33.71 33.72a4.98 4.98 0 007.04 0l33.56-33.56a4.96 4.96 0 000-7.04zM476.4 64.26a6.18 6.18 0 00-.62-5.28 4.87 4.87 0 00-4.2-2.06l-34.9-.45a.56.56 0 01-.54-.36 1.52 1.52 0 01-.1-.62.85.85 0 01.72-.63l35.18-.44c4.2-.18 8.68-3.58 10.29-7.7l2.06-5.2a1.52 1.52 0 00.08-.62A22.68 22.68 0 00462.1 23a22.96 22.96 0 00-21.66 15.48 10.18 10.18 0 00-7.25-1.97 10.3 10.3 0 00-9.22 9.22 15.22 15.22 0 00.18 3.58A14.64 14.64 0 00410 64c0 .71.09 1.43.09 2.15a.6.6 0 00.62.53h64.35a.93.93 0 00.9-.62zM487.5 41.88h-.98a.66.66 0 00-.54.45l-1.43 4.74a6.18 6.18 0 00.63 5.28 4.87 4.87 0 004.2 2.06l7.52.45a.56.56 0 01.54.36 1.52 1.52 0 01.08.62.85.85 0 01-.71.63l-7.7.45c-4.2.17-8.68 3.58-10.3 7.7l-.52 1.43a.44.44 0 00.44.53h26.58c.36 0 .63-.17.63-.53a19.65 19.65 0 00.72-5.2 19.2 19.2 0 00-19.16-18.97"/><g><path fill="#3b59b2" d="M199.55 40.73h-9.09v-4.7a6.74 6.74 0 10-13.47 0v4.7h-9.09v-4.7a15.92 15.92 0 1131.85 0l-.2 4.7zM203.22 42.77h-39.2a3.07 3.07 0 00-3.06 3.06v28.89a3.07 3.07 0 003.07 3.06h39.09a3.07 3.07 0 003.06-3.06V45.83a2.99 2.99 0 00-2.96-3.06zm-17.66 18.98v3.88a1.94 1.94 0 01-1.94 1.94 2 2 0 01-1.94-1.94v-3.88a4.08 4.08 0 01-2.04-3.47 3.99 3.99 0 013.98-3.98 4.05 4.05 0 013.98 3.98 3.95 3.95 0 01-2.04 3.47zM160.15 36.44h-9.4a2.76 2.76 0 110-5.51h9.4a2.76 2.76 0 110 5.51zM166.78 21.54a2.77 2.77 0 01-1.73-.62l-7.46-6.12a2.76 2.76 0 113.47-4.29l7.46 6.13a2.77 2.77 0 01.4 3.88 2.7 2.7 0 01-2.14 1.02zM183.62 15a2.74 2.74 0 01-2.75-2.75v-9.5a2.76 2.76 0 115.5 0v9.5a2.74 2.74 0 01-2.75 2.75zM200.47 21.54a2.56 2.56 0 01-2.15-1.02 2.66 2.66 0 01.4-3.88l7.46-6.13a2.66 2.66 0 013.88.41 2.66 2.66 0 01-.4 3.88l-7.46 6.12a2.77 2.77 0 01-1.73.62zM216.6 36.44h-9.5a2.76 2.76 0 110-5.51h9.5a2.76 2.76 0 010 5.51z"/></g></svg>