<svg xmlns="http://www.w3.org/2000/svg" width="725.5" height="459.941"><defs><filter id="a" x="250.5" y="0" width="475" height="445" filterUnits="userSpaceOnUse"><feOffset dy="10"/><feGaussianBlur stdDeviation="7.5" result="b"/><feFlood flood-color="#557cf2" flood-opacity=".129"/><feComposite operator="in" in2="b"/><feComposite in="SourceGraphic"/></filter><filter id="c" x="498.66" y="329.823" width="34.183" height="34.183" filterUnits="userSpaceOnUse"><feOffset dy="1"/><feGaussianBlur stdDeviation="1.5" result="d"/><feFlood flood-color="#3b59b2" flood-opacity=".2"/><feComposite operator="in" in2="d"/><feComposite in="SourceGraphic"/></filter><style>.e{fill:#98bf49;font-size:13px;font-family:Consolas-Bold,Consolas}.e,.o{font-weight:700}.f{fill:#f285f2}.g{fill:#4e5159}.h{fill:#f2e54e}.i{fill:#7ee5e5}.j{fill:#fff}.o{font-family:Lato-Bold,Lato;fill:#b1b6c7;font-size:16px}</style></defs><g transform="translate(0 59.942)"><rect width="430" height="400" rx="15" fill="#31343b"/><g transform="translate(34.813 34.813)"><circle cx="6.602" cy="6.602" fill="#f2594e" r="6.602"/><circle cx="6.602" cy="6.602" transform="translate(24.009)" fill="#f2c94e" r="6.602"/><circle cx="6.602" cy="6.602" transform="translate(48.017)" fill="#98bf49" r="6.602"/></g></g><text class="e" transform="translate(34.377 158.5)"><tspan x="0" y="0">umblerito@R2D2 </tspan><tspan class="f" y="0">MINGW64</tspan><tspan class="g" y="0"> </tspan><tspan class="h" y="0">/d/project</tspan><tspan class="g" y="0"> </tspan><tspan class="i" y="0">(master)</tspan><tspan class="j"><tspan x="0" y="19">$ git add .</tspan></tspan></text><text class="e" transform="translate(34.377 217.501)"><tspan x="0" y="0">umblerito@R2D2 </tspan><tspan class="f" y="0">MINGW64</tspan><tspan class="g" y="0"> </tspan><tspan class="h" y="0">/d/project</tspan><tspan class="g" y="0"> </tspan><tspan class="i" y="0">(master)</tspan><tspan class="j"><tspan x="0" y="19">$ git commit -m &quot;publish my app&quot;</tspan></tspan></text><text class="e" transform="translate(34.377 275.5)"><tspan x="0" y="0">umblerito@R2D2</tspan><tspan class="f" y="0"> MINGW64</tspan><tspan class="g" y="0"> </tspan><tspan class="h" y="0">/d/project </tspan><tspan class="i" y="0">(master)</tspan><tspan class="j"><tspan x="0" y="19">$ git push umbler master</tspan></tspan></text><text transform="translate(34.377 333.5)" font-size="12" fill="#8d929c" font-weight="700" font-family="Consolas-Bold,Consolas"><tspan x="0" y="0">Counting objects: 18, done.</tspan><tspan x="0" y="19">Delta compression using up to 8 threads</tspan><tspan x="0" y="38">Compressing objetcs: 100% (15/15), done.</tspan><tspan x="0" y="57">Writing objects: 100% (18/18), 366.45 KB done.</tspan><tspan x="0" y="76">10 files changed, 153 insertions(+), 12 deletion(-)</tspan></text><g><g filter="url(#a)"><g transform="translate(273 12.5)" stroke="#f0f4ff" fill="#fff"><rect width="430" height="400" rx="15" stroke="none"/><rect x=".5" y=".5" width="429" height="399" rx="14.5" fill="none"/></g></g><g transform="translate(325.671 65.233)"><text transform="translate(.165 24)" font-family="Lato-Bold,Lato" font-size="24" fill="#6f7380" font-weight="700"><tspan x="0" y="0">Git Provider</tspan></text><text transform="translate(.165 71.778)" font-size="17" fill="#b1b6c7" font-family="Lato-Bold,Lato" font-weight="700"><tspan x="0" y="0">Repositório</tspan></text><text class="o" transform="translate(.165 285.59)"><tspan x="0" y="0">Deploy automático</tspan></text><text transform="translate(.165 250.847)" fill="#f26b7a" font-family="Lato-Bold,Lato" font-size="12" font-weight="700"><tspan x="0" y="0">DEPLOY</tspan></text><text class="o" transform="translate(0 156.778)"><tspan x="0" y="0">Diretório</tspan></text><path stroke-miterlimit="10" stroke="#dfe4f2" fill="none" d="M60.829 246.767h270"/><path d="M3.406 87.201H327.54c1.79 0 3.24 1.791 3.24 4v33.551c0 2.209-1.451 4-3.24 4H3.406c-1.79 0-3.24-1.791-3.24-4V91.201c0-2.209 1.451-4 3.24-4z" fill="#272822"/><path d="M3.249 173.201h324.283c1.794 0 3.248 1.791 3.248 4v33.551c0 2.209-1.454 4-3.248 4H3.249c-1.794 0-3.248-1.791-3.248-4v-33.551c0-2.209 1.454-4 3.248-4z" fill="#dfe4f2"/><text transform="translate(52.165 110.891)" font-size="14" font-family="Consolas" fill="#fff"><tspan x="0" y="0">git@github.com:umbler/webapp.git</tspan></text><text transform="translate(21.433 196.891)" font-size="14" font-family="Consolas" fill="#6f7380"><tspan x="0" y="0">/public/</tspan></text><path d="M34.918 106.492l-9.376-9.378a1.384 1.384 0 00-1.956 0l-1.948 1.948 2.47 2.47a1.643 1.643 0 012.08 2.093l2.385 2.378a1.645 1.645 0 11-.985.929l-2.22-2.22v5.842a1.671 1.671 0 01.434.312 1.645 1.645 0 11-1.788-.359v-5.9a1.645 1.645 0 01-.893-2.158l-2.435-2.435-6.43 6.429a1.386 1.386 0 000 1.958l9.378 9.376a1.384 1.384 0 001.956 0l9.333-9.333a1.382 1.382 0 00-.005-1.952z" fill="#f2774e"/><rect width="37.455" height="14.204" rx="7.102" transform="translate(155.471 273.58)" fill="#a2b8fa"/><g transform="translate(-325.67 -65.23)" filter="url(#c)"><circle cx="12.092" cy="12.092" transform="translate(503.66 333.82)" fill="#557cf2" stroke="#557cf2" stroke-miterlimit="10" r="12.092"/></g></g></g></svg>